<svg width="220" height="54" viewBox="0 0 220 54" fill="none" xmlns="http://www.w3.org/2000/svg">
<path d="M73.5674 30.5986C73.5674 30.1475 73.4062 29.7959 73.084 29.5439C72.7676 29.292 72.208 29.0312 71.4053 28.7617C70.6025 28.4922 69.9463 28.2314 69.4365 27.9795C67.7783 27.165 66.9492 26.0459 66.9492 24.6221C66.9492 23.9131 67.1543 23.2891 67.5645 22.75C67.9805 22.2051 68.5664 21.7832 69.3223 21.4844C70.0781 21.1797 70.9277 21.0273 71.8711 21.0273C72.791 21.0273 73.6143 21.1914 74.3408 21.5195C75.0732 21.8477 75.6416 22.3164 76.0459 22.9258C76.4502 23.5293 76.6523 24.2207 76.6523 25H73.5762C73.5762 24.4785 73.415 24.0742 73.0928 23.7871C72.7764 23.5 72.3457 23.3564 71.8008 23.3564C71.25 23.3564 70.8135 23.4795 70.4912 23.7256C70.1748 23.9658 70.0166 24.2734 70.0166 24.6484C70.0166 24.9766 70.1924 25.2754 70.5439 25.5449C70.8955 25.8086 71.5137 26.084 72.3984 26.3711C73.2832 26.6523 74.0098 26.957 74.5781 27.2852C75.9609 28.082 76.6523 29.1807 76.6523 30.5811C76.6523 31.7002 76.2305 32.5791 75.3867 33.2178C74.543 33.8564 73.3857 34.1758 71.915 34.1758C70.8779 34.1758 69.9375 33.9912 69.0938 33.6221C68.2559 33.2471 67.623 32.7373 67.1953 32.0928C66.7734 31.4424 66.5625 30.6953 66.5625 29.8516H69.6562C69.6562 30.5371 69.832 31.0439 70.1836 31.3721C70.541 31.6943 71.1182 31.8555 71.915 31.8555C72.4248 31.8555 72.8262 31.7471 73.1191 31.5303C73.418 31.3076 73.5674 30.9971 73.5674 30.5986ZM81.5479 22.126V24.4902H83.1123V26.5469H81.5479V30.8975C81.5479 31.2549 81.6123 31.5039 81.7412 31.6445C81.8701 31.7852 82.125 31.8555 82.5059 31.8555C82.7988 31.8555 83.0449 31.8379 83.2441 31.8027V33.9209C82.7109 34.0908 82.1543 34.1758 81.5742 34.1758C80.5547 34.1758 79.8018 33.9355 79.3154 33.4551C78.8291 32.9746 78.5859 32.2451 78.5859 31.2666V26.5469H77.373V24.4902H78.5859V22.126H81.5479ZM89.6426 34C89.5371 33.8066 89.4434 33.5225 89.3613 33.1475C88.8164 33.833 88.0547 34.1758 87.0762 34.1758C86.1797 34.1758 85.418 33.9062 84.791 33.3672C84.1641 32.8223 83.8506 32.1396 83.8506 31.3193C83.8506 30.2881 84.2314 29.5088 84.9932 28.9814C85.7549 28.4541 86.8623 28.1904 88.3154 28.1904H89.2295V27.6895C89.2295 26.8164 88.8516 26.3799 88.0957 26.3799C87.3926 26.3799 87.041 26.7256 87.041 27.417H84.0791C84.0791 26.4971 84.4688 25.75 85.248 25.1758C86.0332 24.6016 87.0322 24.3145 88.2451 24.3145C89.458 24.3145 90.416 24.6104 91.1191 25.2021C91.8223 25.7939 92.1826 26.6055 92.2002 27.6367V31.8467C92.2119 32.7197 92.3467 33.3877 92.6045 33.8506V34H89.6426ZM87.7881 32.0664C88.1572 32.0664 88.4619 31.9873 88.7021 31.8291C88.9482 31.6709 89.124 31.4922 89.2295 31.293V29.7725H88.3682C87.3369 29.7725 86.8213 30.2354 86.8213 31.1611C86.8213 31.4307 86.9121 31.6504 87.0938 31.8203C87.2754 31.9844 87.5068 32.0664 87.7881 32.0664ZM99.6006 27.1709L98.625 27.1006C97.6934 27.1006 97.0957 27.3936 96.832 27.9795V34H93.8701V24.4902H96.6475L96.7441 25.7119C97.2422 24.7803 97.9365 24.3145 98.8271 24.3145C99.1436 24.3145 99.4189 24.3496 99.6533 24.4199L99.6006 27.1709ZM104.558 22.126V24.4902H106.122V26.5469H104.558V30.8975C104.558 31.2549 104.622 31.5039 104.751 31.6445C104.88 31.7852 105.135 31.8555 105.516 31.8555C105.809 31.8555 106.055 31.8379 106.254 31.8027V33.9209C105.721 34.0908 105.164 34.1758 104.584 34.1758C103.564 34.1758 102.812 33.9355 102.325 33.4551C101.839 32.9746 101.596 32.2451 101.596 31.2666V26.5469H100.383V24.4902H101.596V22.126H104.558ZM112.96 32.9717C112.333 33.7744 111.486 34.1758 110.42 34.1758C109.377 34.1758 108.586 33.874 108.047 33.2705C107.514 32.6611 107.247 31.7881 107.247 30.6514V24.4902H110.209V30.6689C110.209 31.4834 110.604 31.8906 111.396 31.8906C112.075 31.8906 112.559 31.6475 112.846 31.1611V24.4902H115.825V34H113.048L112.96 32.9717ZM126.284 29.3154C126.284 30.792 125.95 31.9727 125.282 32.8574C124.62 33.7363 123.724 34.1758 122.593 34.1758C121.72 34.1758 121.002 33.8564 120.439 33.2178V37.6562H117.478V24.4902H120.246L120.334 25.3691C120.902 24.666 121.649 24.3145 122.575 24.3145C123.747 24.3145 124.658 24.748 125.309 25.6152C125.959 26.4766 126.284 27.6631 126.284 29.1748V29.3154ZM123.322 29.1309C123.322 27.4434 122.83 26.5996 121.846 26.5996C121.143 26.5996 120.674 26.8516 120.439 27.3555V31.0996C120.697 31.627 121.172 31.8906 121.863 31.8906C122.807 31.8906 123.293 31.0762 123.322 29.4473V29.1309ZM130.819 31.627H136.189V34H127.734V21.2031H130.819V31.627ZM142.711 34C142.605 33.8066 142.512 33.5225 142.43 33.1475C141.885 33.833 141.123 34.1758 140.145 34.1758C139.248 34.1758 138.486 33.9062 137.859 33.3672C137.232 32.8223 136.919 32.1396 136.919 31.3193C136.919 30.2881 137.3 29.5088 138.062 28.9814C138.823 28.4541 139.931 28.1904 141.384 28.1904H142.298V27.6895C142.298 26.8164 141.92 26.3799 141.164 26.3799C140.461 26.3799 140.109 26.7256 140.109 27.417H137.147C137.147 26.4971 137.537 25.75 138.316 25.1758C139.102 24.6016 140.101 24.3145 141.313 24.3145C142.526 24.3145 143.484 24.6104 144.188 25.2021C144.891 25.7939 145.251 26.6055 145.269 27.6367V31.8467C145.28 32.7197 145.415 33.3877 145.673 33.8506V34H142.711ZM140.856 32.0664C141.226 32.0664 141.53 31.9873 141.771 31.8291C142.017 31.6709 142.192 31.4922 142.298 31.293V29.7725H141.437C140.405 29.7725 139.89 30.2354 139.89 31.1611C139.89 31.4307 139.98 31.6504 140.162 31.8203C140.344 31.9844 140.575 32.0664 140.856 32.0664ZM149.637 24.4902L149.733 25.6064C150.39 24.7451 151.295 24.3145 152.449 24.3145C153.439 24.3145 154.178 24.6104 154.664 25.2021C155.156 25.7939 155.411 26.6846 155.429 27.874V34H152.458V27.9971C152.458 27.5166 152.361 27.165 152.168 26.9424C151.975 26.7139 151.623 26.5996 151.113 26.5996C150.533 26.5996 150.103 26.8281 149.821 27.2852V34H146.859V24.4902H149.637ZM156.703 29.1748C156.703 27.6689 157.028 26.4824 157.679 25.6152C158.329 24.748 159.237 24.3145 160.403 24.3145C161.253 24.3145 161.968 24.6484 162.548 25.3164V20.5H165.519V34H162.855L162.706 32.9805C162.097 33.7773 161.323 34.1758 160.386 34.1758C159.255 34.1758 158.358 33.7422 157.696 32.875C157.034 32.0078 156.703 30.7744 156.703 29.1748ZM159.665 29.3594C159.665 31.0469 160.157 31.8906 161.142 31.8906C161.798 31.8906 162.267 31.6152 162.548 31.0645V27.4434C162.278 26.8809 161.815 26.5996 161.159 26.5996C160.245 26.5996 159.75 27.3379 159.674 28.8145L159.665 29.3594Z" fill="#0F2137"/>
<rect width="54" height="54" rx="10" fill="#121214"/>
<path d="M6.03223 18.5684L11.042 20.335V22.7959L3.47461 19.5879V17.5137L11.042 14.3057V16.7666L6.03223 18.5684ZM36.1523 43.0986H34.2627L38.9736 29.2031H40.8633L36.1523 43.0986ZM47.2705 36.542L42.1641 34.7578V32.3145L49.8193 35.5225V37.5879L42.1641 40.8047V38.3525L47.2705 36.542Z" fill="#4347FE"/>
<path d="M23.1533 28.7373C23.0537 30.1143 22.5439 31.1982 21.624 31.9893C20.71 32.7803 19.5029 33.1758 18.0029 33.1758C16.3623 33.1758 15.0703 32.625 14.127 31.5234C13.1895 30.416 12.7207 28.8984 12.7207 26.9707V26.1885C12.7207 24.958 12.9375 23.874 13.3711 22.9365C13.8047 21.999 14.4229 21.2812 15.2256 20.7832C16.0342 20.2793 16.9717 20.0273 18.0381 20.0273C19.5146 20.0273 20.7041 20.4229 21.6064 21.2139C22.5088 22.0049 23.0303 23.1152 23.1709 24.5449H20.5342C20.4697 23.7188 20.2383 23.1211 19.8398 22.752C19.4473 22.377 18.8467 22.1895 18.0381 22.1895C17.1592 22.1895 16.5 22.5059 16.0605 23.1387C15.627 23.7656 15.4043 24.7412 15.3926 26.0654V27.0322C15.3926 28.415 15.6006 29.4258 16.0166 30.0645C16.4385 30.7031 17.1006 31.0225 18.0029 31.0225C18.8174 31.0225 19.4238 30.8379 19.8223 30.4688C20.2266 30.0938 20.458 29.5166 20.5166 28.7373H23.1533ZM28.3301 20.2031L31.6172 29.4844L34.8867 20.2031H38.3496V33H35.7041V29.502L35.9678 23.4639L32.5137 33H30.7031L27.2578 23.4727L27.5215 29.502V33H24.8848V20.2031H28.3301Z" fill="white"/>
</svg>
